<?xml version="1.0" encoding="utf-8"?>
<!-- Generator: Adobe Illustrator 20.1.0, SVG Export Plug-In . SVG Version: 6.00 Build 0)  -->
<svg version="1.1" id="Layer_1" xmlns="http://www.w3.org/2000/svg" xmlns:xlink="http://www.w3.org/1999/xlink" x="0px" y="0px"
	 viewBox="0 0 321.1 506.6" style="enable-background:new 0 0 321.1 506.6;" xml:space="preserve">
<style type="text/css">
	.st0{opacity:0.75;fill:#1D40D6;stroke:#1E1E1E;stroke-width:0.5;stroke-miterlimit:10;enable-background:new    ;}
	.st1{opacity:0.75;fill:#3EE586;stroke:#1E1E1E;stroke-width:0.5;stroke-miterlimit:10;enable-background:new    ;}
	.st2{opacity:0.75;fill:#8C4F89;stroke:#1E1E1E;stroke-width:0.5;stroke-miterlimit:10;enable-background:new    ;}
	.st3{opacity:0.75;fill:#EAD03B;stroke:#1E1E1E;stroke-width:0.5;stroke-miterlimit:10;enable-background:new    ;}
	.st4{opacity:0.75;fill:#3ED9E5;stroke:#1E1E1E;stroke-width:0.5;stroke-miterlimit:10;enable-background:new    ;}
</style>
<g id="VA">
	<polygon class="st0" points="223.3,460.5 223.3,433.6 199.9,420.1 176.6,433.6 176.6,460.5 199.9,474 	"/>
	<polygon class="st0" points="199.9,420.2 199.9,393.3 176.6,379.8 153.3,393.3 153.3,420.2 176.6,433.7 	"/>
	<polygon class="st0" points="246.6,420.2 246.6,393.3 223.3,379.8 199.9,393.3 199.9,420.2 223.3,433.7 	"/>
	<polygon class="st0" points="130,379.9 130,352.9 106.7,339.5 83.3,352.9 83.3,379.9 106.7,393.3 	"/>
	<polygon class="st0" points="176.6,379.9 176.6,352.9 153.3,339.5 130,352.9 130,379.9 153.3,393.3 	"/>
	<polygon class="st0" points="223.3,379.9 223.3,352.9 199.9,339.5 176.6,352.9 176.6,379.9 199.9,393.3 	"/>
</g>
<g id="FL">
	<polygon class="st1" points="106.7,339.5 106.7,312.6 83.3,299.1 60,312.6 60,339.5 83.3,353 	"/>
	<polygon class="st1" points="153.3,339.5 153.3,312.6 130,299.1 106.7,312.6 106.7,339.5 130,353 	"/>
	<polygon class="st1" points="199.9,339.5 199.9,312.6 176.6,299.1 153.3,312.6 153.3,339.5 176.6,353 	"/>
	<polygon class="st1" points="83.3,299.2 83.3,272.3 60,258.8 36.7,272.3 36.7,299.2 60,312.6 	"/>
	<polygon class="st1" points="130,299.2 130,272.3 106.7,258.8 83.3,272.3 83.3,299.2 106.7,312.6 	"/>
	<polygon class="st1" points="176.6,299.2 176.6,272.3 153.3,258.8 130,272.3 130,299.2 153.3,312.6 	"/>
	<polygon class="st1" points="223.3,299.2 223.3,272.3 199.9,258.8 176.6,272.3 176.6,299.2 199.9,312.6 	"/>
	<polygon class="st1" points="199.9,258.8 199.9,231.9 176.6,218.4 153.3,231.9 153.3,258.8 176.6,272.3 	"/>
</g>
<g id="IA">
	<polygon class="st2" points="106.7,258.8 106.7,231.9 83.3,218.4 60,231.9 60,258.8 83.3,272.3 	"/>
	<polygon class="st2" points="153.3,258.8 153.3,231.9 130,218.4 106.7,231.9 106.7,258.8 130,272.3 	"/>
	<polygon class="st2" points="83.3,218.5 83.3,191.6 60,178.1 36.7,191.6 36.7,218.5 60,232 	"/>
	<polygon class="st2" points="130,218.5 130,191.6 106.7,178.1 83.3,191.6 83.3,218.5 106.7,232 	"/>
	<polygon class="st2" points="176.6,218.5 176.6,191.6 153.3,178.1 130,191.6 130,218.5 153.3,232 	"/>
	<polygon class="st2" points="223.3,218.5 223.3,191.6 199.9,178.1 176.6,191.6 176.6,218.5 199.9,232 	"/>
	<polygon class="st2" points="199.9,178.2 199.9,151.2 176.6,137.8 153.3,151.2 153.3,178.2 176.6,191.6 	"/>
</g>
<g id="OK">
	<polygon class="st3" points="246.6,258.8 246.6,231.9 223.3,218.4 199.9,231.9 199.9,258.8 223.3,272.3 	"/>
	<polygon class="st3" points="269.9,218.5 269.9,191.6 246.6,178.1 223.3,191.6 223.3,218.5 246.6,232 	"/>
	<polygon class="st3" points="246.6,178.2 246.6,151.2 223.3,137.8 199.9,151.2 199.9,178.2 223.3,191.6 	"/>
	<polygon class="st3" points="223.3,137.8 223.3,110.9 199.9,97.4 176.6,110.9 176.6,137.8 199.9,151.3 	"/>
	<polygon class="st3" points="269.9,137.8 269.9,110.9 246.6,97.4 223.3,110.9 223.3,137.8 246.6,151.3 	"/>
	<polygon class="st3" points="199.9,97.5 199.9,70.6 176.6,57.1 153.3,70.6 153.3,97.5 176.6,110.9 	"/>
	<polygon class="st3" points="246.6,97.5 246.6,70.6 223.3,57.1 199.9,70.6 199.9,97.5 223.3,110.9 	"/>
</g>
<g id="CA">
	<polygon class="st4" points="106.7,178.2 106.7,151.2 83.3,137.8 60,151.2 60,178.2 83.3,191.6 	"/>
	<polygon class="st4" points="153.3,178.2 153.3,151.2 130,137.8 106.7,151.2 106.7,178.2 130,191.6 	"/>
	<polygon class="st4" points="130,137.8 130,110.9 106.7,97.4 83.3,110.9 83.3,137.8 106.7,151.3 	"/>
	<polygon class="st4" points="176.6,137.8 176.6,110.9 153.3,97.4 130,110.9 130,137.8 153.3,151.3 	"/>
	<polygon class="st4" points="153.3,97.5 153.3,70.6 130,57.1 106.7,70.6 106.7,97.5 130,110.9 	"/>
	<polygon class="st4" points="176.6,57.1 176.6,30.2 153.3,16.7 130,30.2 130,57.1 153.3,70.6 	"/>
</g>
</svg>
